M48
INCH
T01C0.0191
T02C0.0354
%
T01
X+012761Y+005054
T02
X+008011Y+010664
X+007761Y+013476
X+008761Y+013476
X+009761Y+013476
X+010761Y+013476
X+011761Y+013476
X+012761Y+013476
X+013761Y+013476
X+006761Y+013476
X+004671Y+010664
X+004671Y+007323
X+008011Y+007323
X+007761Y+004476
X+008761Y+004476
X+009761Y+004476
X+010761Y+004476
X+011761Y+004476
X+012761Y+004476
X+013761Y+004476
X+006761Y+004476
T00
M30
